<svg width="760" height="906" viewBox="0 0 760 906" fill="none" xmlns="http://www.w3.org/2000/svg">
<g clip-path="url(#clip0_431_52)">
<path d="M760 785C760 801.569 746.569 815 730 815H694C677.431 815 664 828.431 664 845V876C664 892.569 650.569 906 634 906H0V97C0 80.4314 13.4315 67 30 67H35C51.5685 67 65 53.5685 65 37V30C65 13.4315 78.4315 0 95 0H760V785Z" fill="#0A001B"/>
<g opacity="0.3" filter="url(#filter0_f_431_52)">
<ellipse cx="0.204407" cy="606.503" rx="381.204" ry="200.503" fill="#873BFF"/>
</g>
<g opacity="0.3" filter="url(#filter1_f_431_52)">
<ellipse cx="691.204" cy="190.503" rx="381.204" ry="200.503" fill="#873BFF"/>
</g>
</g>
<defs>
<filter id="filter0_f_431_52" x="-758.2" y="28.8" width="1516.81" height="1155.41" filterUnits="userSpaceOnUse" color-interpolation-filters="sRGB">
<feFlood flood-opacity="0" result="BackgroundImageFix"/>
<feBlend mode="normal" in="SourceGraphic" in2="BackgroundImageFix" result="shape"/>
<feGaussianBlur stdDeviation="188.6" result="effect1_foregroundBlur_431_52"/>
</filter>
<filter id="filter1_f_431_52" x="-67.2" y="-387.2" width="1516.81" height="1155.41" filterUnits="userSpaceOnUse" color-interpolation-filters="sRGB">
<feFlood flood-opacity="0" result="BackgroundImageFix"/>
<feBlend mode="normal" in="SourceGraphic" in2="BackgroundImageFix" result="shape"/>
<feGaussianBlur stdDeviation="188.6" result="effect1_foregroundBlur_431_52"/>
</filter>
<clipPath id="clip0_431_52">
<rect width="760" height="906" rx="30" fill="white"/>
</clipPath>
</defs>
</svg>
